<svg xmlns="http://www.w3.org/2000/svg" width="1920.125" height="280" viewBox="0 0 1920.125 280">
  <g id="Group_55" data-name="Group 55" transform="translate(0 -4386.202)">
    <path id="Path_16" data-name="Path 16" d="M0,3714.2H1920.125v167.642s-136.273,115.371-466.163,30.216S949.892,4073.53,667.926,3967s-404.706-15.014-499.661,6.228S0,3934.756,0,3934.756Z" transform="translate(0 672)" fill="#374c9f"/>
    <g id="Group_41" data-name="Group 41" transform="translate(0 22.915)">
      <g id="Polygon_29" data-name="Polygon 29" transform="translate(283.736 4472.535) rotate(-17)" fill="none" stroke-linecap="round">
        <path d="M24.1,18.092a12,12,0,0,1,20.806,0L58.661,42.018A12,12,0,0,1,48.258,60H20.742a12,12,0,0,1-10.4-17.982Z" stroke="none"/>
        <path d="M 34.5 22.07360458374023 C 33.73223495483398 22.07360458374023 33.14891052246094 22.41107559204102 32.76620101928711 23.07665634155273 L 19.00851058959961 47.00307464599609 C 18.6269645690918 47.66662216186523 18.62785339355469 48.33900451660156 19.01116180419922 49.00152969360352 C 19.39445495605469 49.66407775878906 19.97690963745117 50.00000381469727 20.74232864379883 50.00000381469727 L 48.25767517089844 50.00000381469727 C 49.02309036254883 50.00000381469727 49.60554504394531 49.66407775878906 49.98883819580078 49.00152969360352 C 50.37214660644531 48.33900451660156 50.3730354309082 47.66662216186523 49.99147033691406 47.00305938720703 L 36.23381805419922 23.07665634155273 C 35.85110855102539 22.41107559204102 35.26776504516602 22.07360458374023 34.5 22.07360458374023 M 34.49999237060547 12.0736083984375 C 38.54791259765625 12.0736083984375 42.5958366394043 14.07971954345703 44.90287017822266 18.09194946289063 L 58.66054534912109 42.01834869384766 C 63.26054382324219 50.01832962036133 57.48587036132813 60.00000381469727 48.25767517089844 60.00000381469727 L 20.74232864379883 60.00000381469727 C 11.51412582397461 60.00000381469727 5.739456176757813 50.01832962036133 10.33945465087891 42.01834869384766 L 24.09712600708008 18.09194946289063 C 26.40415573120117 14.07971954345703 30.45207214355469 12.0736083984375 34.49999237060547 12.0736083984375 Z" stroke="none" fill="#304598"/>
      </g>
      <g id="Polygon_30" data-name="Polygon 30" transform="translate(1332.75 4406.387) rotate(22)" fill="none" stroke-linecap="round">
        <path d="M24.1,18.092a12,12,0,0,1,20.806,0L58.661,42.018A12,12,0,0,1,48.258,60H20.742a12,12,0,0,1-10.4-17.982Z" stroke="none"/>
        <path d="M 34.5 22.07360458374023 C 33.73223495483398 22.07360458374023 33.14891052246094 22.41107559204102 32.76620101928711 23.07665634155273 L 19.00851058959961 47.00307464599609 C 18.6269645690918 47.66662216186523 18.62785339355469 48.33900451660156 19.01116180419922 49.00152969360352 C 19.39445495605469 49.66407775878906 19.97690963745117 50.00000381469727 20.74232864379883 50.00000381469727 L 48.25767517089844 50.00000381469727 C 49.02309036254883 50.00000381469727 49.60554504394531 49.66407775878906 49.98883819580078 49.00152969360352 C 50.37214660644531 48.33900451660156 50.3730354309082 47.66662216186523 49.99147033691406 47.00305938720703 L 36.23381805419922 23.07665634155273 C 35.85110855102539 22.41107559204102 35.26776504516602 22.07360458374023 34.5 22.07360458374023 M 34.49999237060547 12.0736083984375 C 38.54791259765625 12.0736083984375 42.5958366394043 14.07971954345703 44.90287017822266 18.09194946289063 L 58.66054534912109 42.01834869384766 C 63.26054382324219 50.01832962036133 57.48587036132813 60.00000381469727 48.25767517089844 60.00000381469727 L 20.74232864379883 60.00000381469727 C 11.51412582397461 60.00000381469727 5.739456176757813 50.01832962036133 10.33945465087891 42.01834869384766 L 24.09712600708008 18.09194946289063 C 26.40415573120117 14.07971954345703 30.45207214355469 12.0736083984375 34.49999237060547 12.0736083984375 Z" stroke="none" fill="#304598"/>
      </g>
      <g id="Polygon_31" data-name="Polygon 31" transform="translate(1829.121 4414.564) rotate(-48)" fill="none" stroke-linecap="round">
        <path d="M24.1,18.092a12,12,0,0,1,20.806,0L58.661,42.018A12,12,0,0,1,48.258,60H20.742a12,12,0,0,1-10.4-17.982Z" stroke="none"/>
        <path d="M 34.5 22.07360458374023 C 33.73223495483398 22.07360458374023 33.14891052246094 22.41107559204102 32.76620101928711 23.07665634155273 L 19.00851058959961 47.00307464599609 C 18.6269645690918 47.66662216186523 18.62785339355469 48.33900451660156 19.01116180419922 49.00152969360352 C 19.39445495605469 49.66407775878906 19.97690963745117 50.00000381469727 20.74232864379883 50.00000381469727 L 48.25767517089844 50.00000381469727 C 49.02309036254883 50.00000381469727 49.60554504394531 49.66407775878906 49.98883819580078 49.00152969360352 C 50.37214660644531 48.33900451660156 50.3730354309082 47.66662216186523 49.99147033691406 47.00305938720703 L 36.23381805419922 23.07665634155273 C 35.85110855102539 22.41107559204102 35.26776504516602 22.07360458374023 34.5 22.07360458374023 M 34.49999237060547 12.0736083984375 C 38.54791259765625 12.0736083984375 42.5958366394043 14.07971954345703 44.90287017822266 18.09194946289063 L 58.66054534912109 42.01834869384766 C 63.26054382324219 50.01832962036133 57.48587036132813 60.00000381469727 48.25767517089844 60.00000381469727 L 20.74232864379883 60.00000381469727 C 11.51412582397461 60.00000381469727 5.739456176757813 50.01832962036133 10.33945465087891 42.01834869384766 L 24.09712600708008 18.09194946289063 C 26.40415573120117 14.07971954345703 30.45207214355469 12.0736083984375 34.49999237060547 12.0736083984375 Z" stroke="none" fill="#304598"/>
      </g>
      <g id="Rectangle_50" data-name="Rectangle 50" transform="translate(1527.222 4462.875) rotate(22)" fill="none" stroke="#304598" stroke-linecap="round" stroke-width="10">
        <rect width="51" height="50" rx="15" stroke="none"/>
        <rect x="5" y="5" width="41" height="40" rx="10" fill="none"/>
      </g>
      <g id="Rectangle_51" data-name="Rectangle 51" transform="matrix(0.891, -0.454, 0.454, 0.891, 914.43, 4476.018)" fill="none" stroke="#304598" stroke-linecap="round" stroke-width="10">
        <rect width="51" height="50" rx="15" stroke="none"/>
        <rect x="5" y="5" width="41" height="40" rx="10" fill="none"/>
      </g>
      <g id="Polygon_32" data-name="Polygon 32" transform="matrix(0.966, 0.259, -0.259, 0.966, 52.503, 4477.934)" fill="none">
        <path d="M22.354,3.048a7,7,0,0,1,8.292,0L48.941,16.5a7,7,0,0,1,2.519,7.78L44.439,46.14A7,7,0,0,1,37.774,51H15.226a7,7,0,0,1-6.665-4.86L1.54,24.277A7,7,0,0,1,4.059,16.5Z" stroke="none"/>
        <path d="M 26.49999046325684 12.41120147705078 L 11.72157669067383 23.27488708496094 L 17.41374206542969 41 L 35.58625411987305 41 L 41.27841949462891 23.27488327026367 L 26.49999046325684 12.41120147705078 M 26.49999237060547 1.687839508056641 C 27.95634841918945 1.687839508056641 29.41270637512207 2.141147613525391 30.64603233337402 3.047763824462891 L 48.94093322753906 16.49643325805664 C 51.36564636230469 18.27885055541992 52.37979888916016 21.41154861450195 51.45966339111328 24.27679824829102 L 44.43851470947266 46.14029693603516 C 43.50859832763672 49.03606414794922 40.81518173217773 51 37.77375030517578 51 L 15.22624969482422 51 C 12.184814453125 51 9.491413116455078 49.03606414794922 8.561481475830078 46.14029693603516 L 1.540332794189453 24.27679824829102 C 0.6201972961425781 21.41154861450195 1.634349822998047 18.27885055541992 4.059062957763672 16.49643325805664 L 22.35396385192871 3.047763824462891 C 23.58728218078613 2.141147613525391 25.04363632202148 1.687839508056641 26.49999237060547 1.687839508056641 Z" stroke="none" fill="#304598"/>
      </g>
      <g id="Polygon_33" data-name="Polygon 33" transform="translate(1066.818 4539.216) rotate(-48)" fill="none">
        <path d="M22.354,3.048a7,7,0,0,1,8.292,0L48.941,16.5a7,7,0,0,1,2.519,7.78L44.439,46.14A7,7,0,0,1,37.774,51H15.226a7,7,0,0,1-6.665-4.86L1.54,24.277A7,7,0,0,1,4.059,16.5Z" stroke="none"/>
        <path d="M 26.49999046325684 12.41120147705078 L 11.72157669067383 23.27488708496094 L 17.41374206542969 41 L 35.58625411987305 41 L 41.27841949462891 23.27488327026367 L 26.49999046325684 12.41120147705078 M 26.49999237060547 1.687839508056641 C 27.95634841918945 1.687839508056641 29.41270637512207 2.141147613525391 30.64603233337402 3.047763824462891 L 48.94093322753906 16.49643325805664 C 51.36564636230469 18.27885055541992 52.37979888916016 21.41154861450195 51.45966339111328 24.27679824829102 L 44.43851470947266 46.14029693603516 C 43.50859832763672 49.03606414794922 40.81518173217773 51 37.77375030517578 51 L 15.22624969482422 51 C 12.184814453125 51 9.491413116455078 49.03606414794922 8.561481475830078 46.14029693603516 L 1.540332794189453 24.27679824829102 C 0.6201972961425781 21.41154861450195 1.634349822998047 18.27885055541992 4.059062957763672 16.49643325805664 L 22.35396385192871 3.047763824462891 C 23.58728218078613 2.141147613525391 25.04363632202148 1.687839508056641 26.49999237060547 1.687839508056641 Z" stroke="none" fill="#304598"/>
      </g>
      <g id="Polygon_34" data-name="Polygon 34" transform="translate(411 4393.085)" fill="none">
        <path d="M22.354,3.048a7,7,0,0,1,8.292,0L48.941,16.5a7,7,0,0,1,2.519,7.78L44.439,46.14A7,7,0,0,1,37.774,51H15.226a7,7,0,0,1-6.665-4.86L1.54,24.277A7,7,0,0,1,4.059,16.5Z" stroke="none"/>
        <path d="M 26.49999046325684 12.41120147705078 L 11.72157669067383 23.27488708496094 L 17.41374206542969 41 L 35.58625411987305 41 L 41.27841949462891 23.27488327026367 L 26.49999046325684 12.41120147705078 M 26.49999237060547 1.687839508056641 C 27.95634841918945 1.687839508056641 29.41270637512207 2.141147613525391 30.64603233337402 3.047763824462891 L 48.94093322753906 16.49643325805664 C 51.36564636230469 18.27885055541992 52.37979888916016 21.41154861450195 51.45966339111328 24.27679824829102 L 44.43851470947266 46.14029693603516 C 43.50859832763672 49.03606414794922 40.81518173217773 51 37.77375030517578 51 L 15.22624969482422 51 C 12.184814453125 51 9.491413116455078 49.03606414794922 8.561481475830078 46.14029693603516 L 1.540332794189453 24.27679824829102 C 0.6201972961425781 21.41154861450195 1.634349822998047 18.27885055541992 4.059062957763672 16.49643325805664 L 22.35396385192871 3.047763824462891 C 23.58728218078613 2.141147613525391 25.04363632202148 1.687839508056641 26.49999237060547 1.687839508056641 Z" stroke="none" fill="#304598"/>
      </g>
      <g id="Polygon_35" data-name="Polygon 35" transform="translate(775.26 4544.275) rotate(25)" fill="none">
        <path d="M22.354,3.048a7,7,0,0,1,8.292,0L48.941,16.5a7,7,0,0,1,2.519,7.78L44.439,46.14A7,7,0,0,1,37.774,51H15.226a7,7,0,0,1-6.665-4.86L1.54,24.277A7,7,0,0,1,4.059,16.5Z" stroke="none"/>
        <path d="M 26.49999046325684 12.41120147705078 L 11.72157669067383 23.27488708496094 L 17.41374206542969 41 L 35.58625411987305 41 L 41.27841949462891 23.27488327026367 L 26.49999046325684 12.41120147705078 M 26.49999237060547 1.687839508056641 C 27.95634841918945 1.687839508056641 29.41270637512207 2.141147613525391 30.64603233337402 3.047763824462891 L 48.94093322753906 16.49643325805664 C 51.36564636230469 18.27885055541992 52.37979888916016 21.41154861450195 51.45966339111328 24.27679824829102 L 44.43851470947266 46.14029693603516 C 43.50859832763672 49.03606414794922 40.81518173217773 51 37.77375030517578 51 L 15.22624969482422 51 C 12.184814453125 51 9.491413116455078 49.03606414794922 8.561481475830078 46.14029693603516 L 1.540332794189453 24.27679824829102 C 0.6201972961425781 21.41154861450195 1.634349822998047 18.27885055541992 4.059062957763672 16.49643325805664 L 22.35396385192871 3.047763824462891 C 23.58728218078613 2.141147613525391 25.04363632202148 1.687839508056641 26.49999237060547 1.687839508056641 Z" stroke="none" fill="#304598"/>
      </g>
      <g id="Polygon_36" data-name="Polygon 36" transform="matrix(0.891, -0.454, 0.454, 0.891, 700.312, 4431.228)" fill="none">
        <path d="M22.354,3.048a7,7,0,0,1,8.292,0L48.941,16.5a7,7,0,0,1,2.519,7.78L44.439,46.14A7,7,0,0,1,37.774,51H15.226a7,7,0,0,1-6.665-4.86L1.54,24.277A7,7,0,0,1,4.059,16.5Z" stroke="none"/>
        <path d="M 26.49999046325684 12.41120147705078 L 11.72157669067383 23.27488708496094 L 17.41374206542969 41 L 35.58625411987305 41 L 41.27841949462891 23.27488327026367 L 26.49999046325684 12.41120147705078 M 26.49999237060547 1.687839508056641 C 27.95634841918945 1.687839508056641 29.41270637512207 2.141147613525391 30.64603233337402 3.047763824462891 L 48.94093322753906 16.49643325805664 C 51.36564636230469 18.27885055541992 52.37979888916016 21.41154861450195 51.45966339111328 24.27679824829102 L 44.43851470947266 46.14029693603516 C 43.50859832763672 49.03606414794922 40.81518173217773 51 37.77375030517578 51 L 15.22624969482422 51 C 12.184814453125 51 9.491413116455078 49.03606414794922 8.561481475830078 46.14029693603516 L 1.540332794189453 24.27679824829102 C 0.6201972961425781 21.41154861450195 1.634349822998047 18.27885055541992 4.059062957763672 16.49643325805664 L 22.35396385192871 3.047763824462891 C 23.58728218078613 2.141147613525391 25.04363632202148 1.687839508056641 26.49999237060547 1.687839508056641 Z" stroke="none" fill="#304598"/>
      </g>
      <g id="Polygon_37" data-name="Polygon 37" transform="matrix(0.839, 0.545, -0.545, 0.839, 1668.164, 4386.681)" fill="none">
        <path d="M22.354,3.048a7,7,0,0,1,8.292,0L48.941,16.5a7,7,0,0,1,2.519,7.78L44.439,46.14A7,7,0,0,1,37.774,51H15.226a7,7,0,0,1-6.665-4.86L1.54,24.277A7,7,0,0,1,4.059,16.5Z" stroke="none"/>
        <path d="M 26.49999046325684 12.41120147705078 L 11.72157669067383 23.27488708496094 L 17.41374206542969 41 L 35.58625411987305 41 L 41.27841949462891 23.27488327026367 L 26.49999046325684 12.41120147705078 M 26.49999237060547 1.687839508056641 C 27.95634841918945 1.687839508056641 29.41270637512207 2.141147613525391 30.64603233337402 3.047763824462891 L 48.94093322753906 16.49643325805664 C 51.36564636230469 18.27885055541992 52.37979888916016 21.41154861450195 51.45966339111328 24.27679824829102 L 44.43851470947266 46.14029693603516 C 43.50859832763672 49.03606414794922 40.81518173217773 51 37.77375030517578 51 L 15.22624969482422 51 C 12.184814453125 51 9.491413116455078 49.03606414794922 8.561481475830078 46.14029693603516 L 1.540332794189453 24.27679824829102 C 0.6201972961425781 21.41154861450195 1.634349822998047 18.27885055541992 4.059062957763672 16.49643325805664 L 22.35396385192871 3.047763824462891 C 23.58728218078613 2.141147613525391 25.04363632202148 1.687839508056641 26.49999237060547 1.687839508056641 Z" stroke="none" fill="#304598"/>
      </g>
      <g id="Group_36" data-name="Group 36" transform="matrix(0.875, 0.485, -0.485, 0.875, 138.827, 4414.312)">
        <line id="Line_14" data-name="Line 14" y1="39.69" x2="39.69" transform="translate(0 0)" fill="none" stroke="#304598" stroke-linecap="round" stroke-width="10"/>
        <line id="Line_15" data-name="Line 15" x1="39.69" y1="39.69" transform="translate(0 0)" fill="none" stroke="#304598" stroke-linecap="round" stroke-width="10"/>
      </g>
      <g id="Group_37" data-name="Group 37" transform="translate(582.957 4497.394) rotate(16)">
        <line id="Line_14-2" data-name="Line 14" y1="39.69" x2="39.69" transform="translate(0)" fill="none" stroke="#304598" stroke-linecap="round" stroke-width="10"/>
        <line id="Line_15-2" data-name="Line 15" x1="39.69" y1="39.69" transform="translate(0 0)" fill="none" stroke="#304598" stroke-linecap="round" stroke-width="10"/>
      </g>
      <g id="Group_38" data-name="Group 38" transform="translate(1032.338 4416.962) rotate(-19)">
        <line id="Line_14-3" data-name="Line 14" y1="39.69" x2="39.69" transform="translate(0 0)" fill="none" stroke="#304598" stroke-linecap="round" stroke-width="10"/>
        <line id="Line_15-3" data-name="Line 15" x1="39.69" y1="39.69" transform="translate(0 0)" fill="none" stroke="#304598" stroke-linecap="round" stroke-width="10"/>
      </g>
      <g id="Group_39" data-name="Group 39" transform="translate(1738.454 4531.591) rotate(-30)">
        <line id="Line_14-4" data-name="Line 14" y1="39.69" x2="39.69" transform="translate(0 0)" fill="none" stroke="#304598" stroke-linecap="round" stroke-width="10"/>
        <line id="Line_15-4" data-name="Line 15" x1="39.69" y1="39.69" transform="translate(0 0)" fill="none" stroke="#304598" stroke-linecap="round" stroke-width="10"/>
      </g>
      <g id="Group_40" data-name="Group 40" transform="translate(219.009 4518.897) rotate(50)">
        <line id="Line_14-5" data-name="Line 14" y1="39.69" x2="39.69" transform="translate(0 0)" fill="none" stroke="#304598" stroke-linecap="round" stroke-width="10"/>
        <line id="Line_15-5" data-name="Line 15" x1="39.69" y1="39.69" transform="translate(0 0)" fill="none" stroke="#304598" stroke-linecap="round" stroke-width="10"/>
      </g>
    </g>
  </g>
</svg>
