<svg xmlns="http://www.w3.org/2000/svg" viewBox="0 0 244.72 248.05"><defs><style>.cls-1{fill:#d2eefc;}.cls-2,.cls-4,.cls-5{fill:#374d9e;}.cls-3{fill:#89c3ea;}.cls-4{opacity:0.15;}.cls-5{opacity:0.1;}</style></defs><g id="Layer_2" data-name="Layer 2"><g id="Layer_1-2" data-name="Layer 1"><path class="cls-1" d="M170.26,127.37a74.53,74.53,0,0,1-20.53,51.48A74.47,74.47,0,0,1,115.79,169a75,75,0,0,0-6.14-43.73,74.71,74.71,0,0,0,30-55.45c.06-.92.1-1.83.12-2.76.83.6,1.65,1.23,2.45,1.88a74.65,74.65,0,0,1,28.07,58.41Z"/><path class="cls-2" d="M167.26,127.37a71.53,71.53,0,0,1-19.65,49.35l2.12-.87a72,72,0,0,1-32.43-9.42l1.38,3.38a79,79,0,0,0-6.44-46l-1.08,4.11a78.58,78.58,0,0,0,29.47-44.45,79.78,79.78,0,0,0,2.11-16.35l-4.51,2.59a71.67,71.67,0,0,1,29,57.7c0,3.86,6,3.86,6,0A78.5,78.5,0,0,0,153,75a76.76,76.76,0,0,0-11.72-10.48c-1.92-1.41-4.46.51-4.51,2.59a72,72,0,0,1-18.42,46.27,73.69,73.69,0,0,1-10.18,9.35,3.11,3.11,0,0,0-1.08,4.1,71.9,71.9,0,0,1,5.84,41.42,3.12,3.12,0,0,0,1.38,3.39,78.77,78.77,0,0,0,19.06,7.81,80,80,0,0,0,10.31,1.92c1.7.21,3.42.37,5.13.46a3.82,3.82,0,0,0,3.07-.83c.57-.52,1.08-1.16,1.59-1.73a77.54,77.54,0,0,0,19.82-51.87C173.27,123.5,167.27,123.5,167.26,127.37Z"/><path class="cls-3" d="M241.72,124A121.07,121.07,0,0,1,6.36,164c-.17-.44-.32-.89-.47-1.33-.89-2.64-1.68-5.32-2.39-8-.11-.41-.21-.82-.31-1.23a10.94,10.94,0,0,1-.19-2,10.5,10.5,0,0,1,20.64-2.91l.39,1.27s0,0,0,0a73.09,73.09,0,0,0,3.83,9.73h0c.46,1,1.15,2.36,2.06,4,1.12,2,15.33,26.69,43.46,35.36a75,75,0,0,0,22,3.3q3.24,0,6.41-.28a73.39,73.39,0,0,0,16.77-3.39,72.38,72.38,0,0,1-9.31-8.88c-1.46-1.64-2.85-3.36-4.15-5.13s-2.38-3.36-3.47-5.12c-4.78-7.73,4.09-16.55,11.8-11.74.76.47,1.52.93,2.3,1.37a74.47,74.47,0,0,0,33.94,9.83A74.77,74.77,0,0,0,142.19,69c-.8-.65-1.62-1.28-2.45-1.88,0,.93-.06,1.84-.12,2.76a74.71,74.71,0,0,1-30,55.45c-.87.65-1.7,1.23-2.51,1.78A76.5,76.5,0,0,1,100,131.4c-7,3.71-14.64-3.71-11.32-10.91.58-1.26,1.14-2.56,1.67-3.91a76.36,76.36,0,0,0,3.78-13.1,74.56,74.56,0,0,0,1.35-14.2,94.49,94.49,0,0,0-4.82-26.47,21.08,21.08,0,0,0-.9-2.27c-1.26-2.72-2.42-5.23-4.56-6-2.88-1-6.07,1.71-6.48,2.06a18.39,18.39,0,0,0-4-8.25A13.54,13.54,0,0,0,71,45.2a13.86,13.86,0,0,0-7.37-1.69,18.78,18.78,0,0,0-7.48,1.75,31.89,31.89,0,0,0-5.41,3,69.57,69.57,0,0,0-5.71,4.11,80.08,80.08,0,0,0-9.72,9c-3.27,3.58-3.07,4.18-7.5,9.13A40.22,40.22,0,0,1,22.3,76c-2.37,1.83-5.1,3.89-9,4.37a14.54,14.54,0,0,1-5.63-.44c.16-.46.32-.88.47-1.25,14.09-35.18,46.47-56,46.47-56s17.27-11.13,36.51-16A123.14,123.14,0,0,1,120.66,3,121.06,121.06,0,0,1,241.72,124Z"/><path class="cls-2" d="M238.72,124A118.08,118.08,0,0,1,7.65,158.3c-.52-1.75-1.07-3.52-1.47-5.31a7.25,7.25,0,0,1,.06-3.51,7.55,7.55,0,0,1,4-4.86,7.7,7.7,0,0,1,6.73,0,7.32,7.32,0,0,1,2.62,2.13A14,14,0,0,1,21.29,151a80.57,80.57,0,0,0,4,10l-.41-1.51a7.23,7.23,0,0,0,1.1,2.94c.45.89.91,1.78,1.4,2.65.17.31.35.61.53.91.73,1.22,1.51,2.41,2.32,3.58a91.19,91.19,0,0,0,10.27,12.35C52.3,193.8,67.39,202,84,204.33a79,79,0,0,0,35.38-2.92c1.94-.63,3.19-3.51,1.32-5a73.27,73.27,0,0,1-15.69-17.31,16.4,16.4,0,0,1-1.27-2.13c.1.23-.15-.41-.18-.51s-.09-.31-.13-.47-.13-.62-.09-.36,0-.51,0-.66a7.18,7.18,0,0,1,0-1c-.07.48.08-.21.11-.36s.28-.86.23-.73a5.81,5.81,0,0,1,1.72-2.28c.39-.34-.13.05.3-.23.25-.16.49-.31.74-.44l.52-.26c-.06,0-.37.14,0,0l1-.28c.51-.15-.17,0,.37-.06.3,0,.59,0,.89,0,.14,0,.85.12.42,0a7.8,7.8,0,0,1,1.08.29,31.85,31.85,0,0,1,4.16,2.34,79.34,79.34,0,0,0,10.7,5,77.38,77.38,0,0,0,23,4.87,4.07,4.07,0,0,0,3.57-1.11c.6-.59,1.15-1.24,1.71-1.88q1.72-2,3.33-4.07a78.48,78.48,0,0,0,5.59-8.28,77.4,77.4,0,0,0,7.89-19A77.73,77.73,0,0,0,145.74,68c-1.46-1.23-3-2.4-4.49-3.52-1.92-1.41-4.46.51-4.51,2.59a72.27,72.27,0,0,1-35.53,60.18,17.87,17.87,0,0,1-3.7,1.91,4.36,4.36,0,0,1-3-.06A5.53,5.53,0,0,1,91,125.26a5.14,5.14,0,0,1,.15-3c.49-1.51,1.43-3.3,2.06-4.93a73.94,73.94,0,0,0,3-9.65,76.21,76.21,0,0,0,2.21-18.48,73.76,73.76,0,0,0-.83-9.39,100.33,100.33,0,0,0-1.93-10.18A60.18,60.18,0,0,0,92.31,59c-1.57-3.47-3.61-7.2-7.82-7.63-3-.31-5.74,1.25-7.93,3.1l5,1.33c-1.45-6.77-6.34-13.41-13.41-14.9C61.3,39.47,54.93,42,49.25,45.7a82.14,82.14,0,0,0-15,12.47,68.1,68.1,0,0,0-5.05,6.08l-.3.39.07-.09-.53.67c-.49.6-1,1.19-1.48,1.77-1.2,1.39-2.43,2.76-3.71,4.08-.79.81-1.61,1.59-2.47,2.33-.11.09-.24.17-.34.27s.47-.36.4-.3l-.54.41c-.69.53-1.4,1-2.14,1.52A11.79,11.79,0,0,1,8.44,77l2.09,3.69a90.79,90.79,0,0,1,8.73-17.26,120.07,120.07,0,0,1,10.43-14.2A145.28,145.28,0,0,1,49.57,30l.9-.71.5-.39c.39-.31-.51.38,0,0l1.57-1.18q1.17-.87,2.37-1.71c.7-.48,1.4-.94,2.12-1.38A133.45,133.45,0,0,1,86.36,11.07a116.17,116.17,0,0,1,44.09-4.71A112.5,112.5,0,0,1,147.24,9a119.68,119.68,0,0,1,16.35,5c2.64,1,4.72,1.92,7.37,3.17s5,2.5,7.48,3.88a120.71,120.71,0,0,1,13.86,9.1c.88.67,1.92,1.5,3,2.37s2.1,1.75,3.12,2.65q3.14,2.76,6.08,5.72A116.3,116.3,0,0,1,224.2,67.26a112.79,112.79,0,0,1,6.9,14.92,118.46,118.46,0,0,1,7.31,33.09q.32,4.38.31,8.76c0,3.86,6,3.86,6,0a125,125,0,0,0-5.21-35.68,123.95,123.95,0,0,0-99.7-86.89,126.26,126.26,0,0,0-43.31.87C83,5,70.17,10.26,58.22,17a80,80,0,0,0-8.88,5.68A146.47,146.47,0,0,0,30.51,39.35,126.85,126.85,0,0,0,9,69.46a86.69,86.69,0,0,0-4.22,9.63,3,3,0,0,0,2.09,3.69,17.2,17.2,0,0,0,10.43-.36,27.62,27.62,0,0,0,7.55-4.65c4-3.25,7.25-7.49,10.32-11.58.17-.21.4-.51.09-.11l.45-.57q.59-.7,1.2-1.41c1.2-1.36,2.47-2.67,3.78-3.93a84.94,84.94,0,0,1,6.42-5.58,65.38,65.38,0,0,1,7.84-5.36,17.75,17.75,0,0,1,7.81-2.69c3.17-.2,6.21.28,8.68,2.68a15.7,15.7,0,0,1,4.38,8.19c.51,2.38,3.41,2.69,5,1.33.57-.49-.51.32.27-.21a11,11,0,0,1,1.44-.86c.82-.39-.43.09.47-.18,0,0,1-.19.51-.14,0,0,1,.09.54,0l.2.06c.3.2.36.23.19.08,1.76,1.68,2.83,4.6,3.61,7.05A101.64,101.64,0,0,1,90.72,75c.28,1.37.53,2.74.75,4.12.11.68.21,1.35.31,2,.14,1-.07-.55.06.46,0,.39.09.78.14,1.18a68.34,68.34,0,0,1-2.62,27.37c-.53,1.75-1.11,3.48-1.77,5.19s-1.51,3.33-2.12,5a11.29,11.29,0,0,0,.71,9,11.6,11.6,0,0,0,6.58,5.53,11.45,11.45,0,0,0,9.11-1.07,77.78,77.78,0,0,0,40.87-66.7l-4.51,2.59a71.86,71.86,0,0,1,23.33,85.83,72.53,72.53,0,0,1-13.95,21.22l2.12-.87a72.15,72.15,0,0,1-19.58-3.65,67.46,67.46,0,0,1-8.89-3.65c-2.81-1.4-5.43-3.37-8.35-4.51a11.58,11.58,0,0,0-13.53,4.35,11.11,11.11,0,0,0-2,7c.23,3.19,1.8,5.71,3.56,8.29a78.2,78.2,0,0,0,15.58,16.95l1.32-5c-17.76,5.75-37.84,4.58-54.4-4.05a74.84,74.84,0,0,1-9.56-6,78.91,78.91,0,0,1-7.47-6.29,86,86,0,0,1-6-6.35q-1.23-1.42-2.4-2.91c-.15-.2-.61-.79-.2-.25l-.5-.67c-.32-.42-.63-.84-.94-1.27A64.53,64.53,0,0,1,30.46,158l.41,1.52a7,7,0,0,0-1-2.76c-.33-.73-.65-1.46-.95-2.2-.74-1.83-1.4-3.7-2-5.58a23.18,23.18,0,0,0-1.75-4.57,12.93,12.93,0,0,0-3.9-4.16A13.57,13.57,0,0,0,0,151.38a20.64,20.64,0,0,0,1,5.38q.8,2.93,1.73,5.8a126.28,126.28,0,0,0,7.82,18.59,124.06,124.06,0,0,0,233.66-45.66c.36-3.81.53-7.64.54-11.46S238.73,120.16,238.72,124Z"/><path class="cls-1" d="M95.44,89.28a74.56,74.56,0,0,1-1.35,14.2A74.64,74.64,0,0,0,79.15,92.19a73.15,73.15,0,0,0-8.94-4.36A86.05,86.05,0,0,1,43.72,104a41,41,0,0,1-15.12,3.1c-4.25,0-8.77,0-13.31-2.86C8,99.59,6.63,91.3,6.47,90.21A21.24,21.24,0,0,1,7.64,79.89a14.54,14.54,0,0,0,5.63.44c3.93-.48,6.66-2.54,9-4.37a40.22,40.22,0,0,0,5.53-5.48c4.43-5,4.23-5.55,7.5-9.13a80.08,80.08,0,0,1,9.72-9,69.57,69.57,0,0,1,5.71-4.11,31.89,31.89,0,0,1,5.41-3,18.78,18.78,0,0,1,7.48-1.75A13.86,13.86,0,0,1,71,45.2a13.54,13.54,0,0,1,3.68,3.17,18.39,18.39,0,0,1,4,8.25c.41-.36,3.6-3.07,6.48-2.06,2.14.74,3.3,3.26,4.56,6a20.79,20.79,0,0,1,.9,2.27A94.62,94.62,0,0,1,95.44,89.28Z"/><path class="cls-2" d="M92.44,89.28a72.63,72.63,0,0,1-1.24,13.4l5-1.33A79.16,79.16,0,0,0,71,84.93a3,3,0,0,0-2.92.77c-.84.77-1.69,1.51-2.57,2.23l-1,.81-.55.44c-.65.51.49-.37-.19.14-1,.75-2,1.48-3,2.19a83.34,83.34,0,0,1-16.6,9.08c-6.72,2.69-13.85,4.25-21.12,3.28-6-.8-10.17-4.66-12.44-9.87.27.61,0-.16-.08-.25q-.18-.44-.33-.9c-.15-.46-.29-.93-.42-1.4a16.94,16.94,0,0,1-.4-1.85,18.72,18.72,0,0,1,1.14-8.92l-3.69,2.1a17.2,17.2,0,0,0,10.43-.36,27.62,27.62,0,0,0,7.55-4.65c4-3.25,7.25-7.49,10.32-11.58.17-.21.4-.51.09-.11l.45-.57q.59-.7,1.2-1.41c1.2-1.36,2.47-2.67,3.78-3.93a84.94,84.94,0,0,1,6.42-5.58,65.38,65.38,0,0,1,7.84-5.36,17.75,17.75,0,0,1,7.81-2.69c3.17-.2,6.21.28,8.68,2.68a15.7,15.7,0,0,1,4.38,8.19c.51,2.37,3.42,2.7,5,1.33.09-.08.45-.39.08-.08s.18-.13.29-.2a10.92,10.92,0,0,1,1.56-.9s.68-.2.89-.23c-.33.05.42,0,.54,0-.17,0,.22.14.21.14.27.16.11.06,0,0a5.32,5.32,0,0,1,.48.47,16.8,16.8,0,0,1,2.33,4.3,37.62,37.62,0,0,1,1.51,4.61,93.94,93.94,0,0,1,3.53,18.81c.09,1.2.18,2.4.18,3.6,0,3.86,6,3.86,6,0A78.12,78.12,0,0,0,97,76.16,103.77,103.77,0,0,0,93.82,63c-1.15-3.62-2.79-8.11-6-10.38-3.66-2.56-8.21-.69-11.24,1.92l5,1.33c-1.45-6.77-6.34-13.41-13.41-14.9C61.3,39.47,54.93,42,49.25,45.7a82.14,82.14,0,0,0-15,12.47,68.1,68.1,0,0,0-5.05,6.08l-.3.39.07-.09-.53.67c-.49.6-1,1.19-1.48,1.77-1.2,1.39-2.43,2.76-3.71,4.08-.79.81-1.61,1.59-2.47,2.33-.11.09-.24.17-.34.27s.47-.36.4-.3l-.54.41c-.69.53-1.4,1-2.14,1.52A11.79,11.79,0,0,1,8.44,77a3.07,3.07,0,0,0-3.69,2.1A23.65,23.65,0,0,0,4.5,94.67a22.37,22.37,0,0,0,13.08,14c3.57,1.36,7.48,1.46,11.25,1.42a41.79,41.79,0,0,0,12.3-2,83.86,83.86,0,0,0,20.24-9.72,84.06,84.06,0,0,0,11-8.38l-2.92.77A71.49,71.49,0,0,1,92,105.6c1.51,1.46,4.58,1,5-1.33a81.1,81.1,0,0,0,1.46-15C98.45,85.41,92.45,85.41,92.44,89.28Z"/><path class="cls-2" d="M7.64,76.89h0a2.32,2.32,0,0,0-1.16.25,2.34,2.34,0,0,0-1,.62,2.34,2.34,0,0,0-.62,1,2.2,2.2,0,0,0-.26,1.16l.11.79A3,3,0,0,0,5.51,82l.61.47a3.05,3.05,0,0,0,1.51.41h0a2.32,2.32,0,0,0,1.16-.26,2.25,2.25,0,0,0,1-.62,2.28,2.28,0,0,0,.62-1,2.19,2.19,0,0,0,.26-1.15l-.11-.8a3,3,0,0,0-.77-1.33l-.61-.46a2.86,2.86,0,0,0-1.51-.41Z"/><path class="cls-4" d="M106.44,4.66c10.33-.06,35.62,1.21,60.06,18.1,31.88,22,40.13,55.28,42.82,66.86,13,56.11-20.16,100.88-26.17,108.67-24,31.09-55,43.23-68.51,47.61l25.55-1.34,26.29-8.45L188.6,226l8.78-8.37L216.46,198l8.45-12.45L236.08,159l4.5-14.78-1.78-34.74L237,88.7l-7.9-16.14-7.73-15.71L205.33,35.28,173.51,13.1,140.19,3.76Z"/><path class="cls-2" d="M100,42.32a18.45,18.45,0,0,0,8.15-6.71,14,14,0,0,0-1-16.79,18.61,18.61,0,0,0-8.88-5.69c3.78-1.74,8.71-1.08,12.49,1.53a15.67,15.67,0,0,1,6.69,12,16.13,16.13,0,0,1-1.18,7,15.28,15.28,0,0,1-4.05,5.66C108.77,42.34,104,43.58,100,42.32Z"/><path class="cls-2" d="M111.05,78.81a15.4,15.4,0,0,0,6.15-5.75,11.38,11.38,0,0,0-.77-12.71,15.46,15.46,0,0,0-6.78-5c3-1.69,7.18-1.29,10.39.83a12.93,12.93,0,0,1,1.22,20.56C118.33,79.23,114.25,80.12,111.05,78.81Z"/><path class="cls-2" d="M140.91,54.9a14.33,14.33,0,0,0,6.1-4.64A10.54,10.54,0,0,0,147.82,39a14.36,14.36,0,0,0-5.36-5.48c3-1.3,6.76-.48,9.49,1.84a12,12,0,0,1-1.4,19.09C147.52,56.35,143.64,56.6,140.91,54.9Z"/><path class="cls-2" d="M175.31,54.36a16.2,16.2,0,0,0,8.93.67,12,12,0,0,0,6.28-3.58,12.17,12.17,0,0,0,3.09-6.52,16.28,16.28,0,0,0-1.33-8.86c3.46,1.15,6.13,4.62,6.83,8.59a13.65,13.65,0,0,1-14.72,15.85C180.37,60.11,176.72,57.71,175.31,54.36Z"/><path class="cls-2" d="M172,89.44a16,16,0,0,0,8.48,2.33,11.81,11.81,0,0,0,10.93-7.88,16,16,0,0,0,.49-8.78c3.13,1.76,5,5.63,5,9.61a13.45,13.45,0,0,1-17.32,12.46C175.74,96,172.69,93,172,89.44Z"/><path class="cls-2" d="M202.86,106.6a17.11,17.11,0,0,0,8.19,5,12.8,12.8,0,0,0,14-5.42A17.24,17.24,0,0,0,227.72,97c2.69,2.75,3.57,7.28,2.37,11.37a14.5,14.5,0,0,1-21.31,8.26C205.14,114.38,202.74,110.44,202.86,106.6Z"/><path class="cls-2" d="M179,125.4a16.38,16.38,0,0,0,5.61,7.1,12.17,12.17,0,0,0,14,0,16.41,16.41,0,0,0,5.63-7.08c1.5,3.34.77,7.69-1.7,10.93a13.77,13.77,0,0,1-21.81,0C178.27,133.09,177.54,128.75,179,125.4Z"/><path class="cls-2" d="M196,161a16.75,16.75,0,0,0,4,8.42,12.47,12.47,0,0,0,14.11,3.17,16.82,16.82,0,0,0,7.2-5.91c.71,3.69-1,7.86-4.21,10.52a14.11,14.11,0,0,1-21.77-4.9C193.6,168.54,193.82,164,196,161Z"/><path class="cls-2" d="M167,175.82a14.63,14.63,0,0,0,.43,7,8.41,8.41,0,0,0,2.79,4.06,8.57,8.57,0,0,0,4.6,1.77,15.08,15.08,0,0,0,6.91-1.21,8.73,8.73,0,0,1-5.93,6.62,10.36,10.36,0,0,1-5.06.45,10.52,10.52,0,0,1-8.05-6.36,10.33,10.33,0,0,1-.74-5A8.74,8.74,0,0,1,167,175.82Z"/><path class="cls-2" d="M152.29,201.45a15.79,15.79,0,0,0-3.84,7.77,11.78,11.78,0,0,0,.88,6.87,11.94,11.94,0,0,0,4.62,5.16,16,16,0,0,0,8.38,2.19c-2.29,2.7-6.41,3.83-10.25,3a13.28,13.28,0,0,1-8.75-19.18C145.2,203.79,148.75,201.42,152.29,201.45Z"/><path class="cls-2" d="M120.39,221.86a11.16,11.16,0,0,0-3.64,4.55,8.61,8.61,0,0,0-.63,3.86,8.73,8.73,0,0,0,1.09,3.75,11.2,11.2,0,0,0,4.15,4.1c-2.07,1.63-5.26,1.55-7.75.06a9.45,9.45,0,0,1-.92-15.45C115,221,118.14,220.5,120.39,221.86Z"/><path class="cls-2" d="M90.32,205.26a10.41,10.41,0,0,0-3.56,4.2,8.71,8.71,0,0,0,0,7,10.47,10.47,0,0,0,3.58,4.19c-2,1.5-5.1,1.31-7.42-.24a9,9,0,0,1,0-14.82C85.22,204,88.28,203.78,90.32,205.26Z"/><path class="cls-2" d="M60.49,204.7a9.8,9.8,0,0,0-5.16,1,8.36,8.36,0,0,0-2.55,2.1,8.56,8.56,0,0,0-1.58,2.89,9.89,9.89,0,0,0-.05,5.27,6.32,6.32,0,0,1-5.42-4.7,8.67,8.67,0,0,1,9.15-11A6.29,6.29,0,0,1,60.49,204.7Z"/><path class="cls-2" d="M81.77,69.17A77.93,77.93,0,0,1,51,97.54q-2.2,1.13-4.45,2.11c-.6.26-.71.31-1.53.64s-1.37.54-2.06.79a3.08,3.08,0,0,0-2.09,3.69,3,3,0,0,0,3.69,2.1A84,84,0,0,0,80.1,81.75,87.92,87.92,0,0,0,87,72.2c2-3.3-3.15-6.31-5.18-3Z"/><path class="cls-2" d="M32.84,108.2a38.51,38.51,0,0,0,13.1-16,1.55,1.55,0,0,0-.54-2,1.51,1.51,0,0,0-2,.54,35.68,35.68,0,0,1-12,14.93,1.55,1.55,0,0,0-.54,2.06,1.52,1.52,0,0,0,2.06.53Z"/><path class="cls-5" d="M32.21,66.27A47,47,0,0,1,77.46,57.2L75.66,48,64.08,42.39,45.23,51.27Z"/><path class="cls-5" d="M84.35,73.46a33.55,33.55,0,0,1-.09,12.88,32.54,32.54,0,0,1-2.15,6.71l-5.64-3.58-3.13-3,4.3-4.92Z"/><path class="cls-5" d="M142.24,72.29c1.44,6.87,1.53,17.71.11,28.5-3.4,25.93-18.75,42.84-25.08,49.1l-2.66-10.57-6.48-12.94,17.45-17.25,12.85-25.87Z"/><ellipse class="cls-2" cx="55.83" cy="68.41" rx="4.66" ry="5.76"/><path class="cls-2" d="M8.48,96.48a9.26,9.26,0,0,0,3.26-.78,14.9,14.9,0,0,1,3.7-1.45A8.69,8.69,0,0,1,18.11,94,5.73,5.73,0,0,1,22,95.51,4.86,4.86,0,0,1,23,97.44a5.78,5.78,0,0,1,.1,2.68,20.53,20.53,0,0,1-1.24,4.28,7.11,7.11,0,0,0-.32,2.25"/></g></g></svg>